<?xml version="1.0" standalone="no"?>
<!DOCTYPE svg PUBLIC "-//W3C//DTD SVG 20010904//EN"
 "http://www.w3.org/TR/2001/REC-SVG-20010904/DTD/svg10.dtd">
<svg version="1.0" xmlns="http://www.w3.org/2000/svg"
 width="800.000000pt" height="800.000000pt" viewBox="0 0 800.000000 800.000000"
 preserveAspectRatio="xMidYMid meet">
<metadata>
Created by potrace 1.11, written by Peter Selinger 2001-2013
</metadata>
<g transform="translate(0.000000,800.000000) scale(0.100000,-0.100000)"
fill="#000000" stroke="none">
<path d="M0 4000 l0 -4000 4000 0 4000 0 0 4000 0 4000 -4000 0 -4000 0 0
-4000z m4854 2485 c130 -20 222 -47 331 -101 149 -72 241 -170 266 -280 27
-120 -52 -210 -202 -229 -134 -17 -248 35 -369 166 -45 49 -94 96 -110 104
-77 40 -197 36 -298 -10 -75 -34 -175 -133 -211 -209 -46 -95 -51 -143 -51
-451 l0 -285 575 0 575 0 0 -1190 0 -1190 -574 0 -574 0 -4 -323 c-4 -316 -5
-324 -32 -412 -74 -243 -223 -418 -429 -503 -243 -101 -614 -93 -884 19 -254
106 -384 306 -290 448 30 45 74 68 159 83 125 22 255 -24 343 -120 140 -154
172 -174 278 -173 120 1 217 43 300 130 120 125 137 197 137 574 l0 277 -575
0 -575 0 0 1190 0 1190 575 0 575 0 0 288 c0 158 5 316 11 352 38 239 193 468
386 568 177 92 422 124 667 87z"/>
<path d="M3060 4005 l0 -915 365 0 365 0 0 915 0 915 -365 0 -365 0 0 -915z"/>
<path d="M4210 4005 l0 -915 365 0 365 0 0 915 0 915 -365 0 -365 0 0 -915z"/>
</g>
</svg>
